<?xml version="1.0" standalone="no"?>
<!DOCTYPE svg PUBLIC "-//W3C//DTD SVG 20010904//EN"
 "http://www.w3.org/TR/2001/REC-SVG-20010904/DTD/svg10.dtd">
<svg version="1.0" xmlns="http://www.w3.org/2000/svg"
 width="700.000000pt" height="700.000000pt" viewBox="0 0 700.000000 700.000000"
 preserveAspectRatio="xMidYMid meet">
<metadata>
Created by potrace 1.14, written by Peter Selinger 2001-2017
</metadata>
<g transform="translate(0.000000,700.000000) scale(0.100000,-0.100000)"
fill="#000000" stroke="none">
<path d="M3418 5732 c-288 -1 -418 -6 -418 -13 0 -11 44 -56 75 -77 106 -69
267 -186 274 -200 11 -21 9 -2692 -2 -2709 -4 -7 -40 -34 -80 -60 -40 -26 -74
-50 -77 -53 -3 -3 -38 -27 -79 -55 -69 -47 -111 -87 -111 -106 0 -5 79 -9 175
-9 132 0 175 -3 177 -12 1 -7 2 -206 3 -442 l1 -429 -30 -31 c-17 -17 -87 -69
-156 -116 -120 -82 -170 -123 -170 -141 0 -5 603 -9 1340 -9 l1340 0 1 428 c1
469 -1 575 -6 581 -10 9 -60 -42 -124 -129 -39 -52 -74 -99 -79 -105 -4 -5
-77 -104 -162 -220 -289 -394 -319 -433 -337 -438 -10 -3 -230 -5 -490 -5
l-472 1 0 533 -1 534 348 1 c191 1 357 3 369 4 12 1 62 5 112 9 156 11 347 54
472 106 41 17 79 32 85 34 26 5 203 111 269 161 138 105 313 301 393 440 50
89 129 267 148 335 59 215 82 398 78 630 -2 134 -5 176 -25 300 -105 665 -626
1137 -1374 1245 -97 14 -761 22 -1467 17z m1247 -129 c458 -77 742 -388 859
-942 32 -148 34 -167 43 -331 17 -334 6 -615 -33 -813 -8 -42 -17 -88 -20
-102 -10 -56 -77 -242 -113 -314 -131 -260 -316 -419 -571 -489 -128 -36 -284
-48 -600 -47 l-215 0 -3 839 c-2 933 -8 859 69 911 134 90 268 189 273 201 5
13 -24 36 -41 33 -4 -1 -156 -1 -336 0 -386 1 -374 -6 -195 119 61 42 137 96
170 119 l58 43 0 396 0 395 288 -2 c183 -1 316 -7 367 -16z"/>
<path d="M6485 5712 c-71 -23 -156 -109 -180 -181 -78 -236 123 -459 364 -401
95 23 188 113 217 211 41 136 -38 306 -166 361 -62 27 -171 32 -235 10z m223
-71 c81 -42 123 -119 123 -222 0 -108 -64 -194 -165 -224 -63 -19 -94 -19
-152 1 -99 34 -153 104 -162 210 -6 75 21 154 68 199 64 61 204 79 288 36z"/>
<path d="M6461 5575 c-5 -5 -8 -77 -7 -160 l1 -150 33 -3 c31 -3 32 -3 33 40
1 24 0 54 -1 67 -2 20 2 23 22 18 12 -4 28 -7 34 -7 6 0 21 -19 34 -42 35 -66
50 -78 88 -78 40 0 40 3 -14 87 -39 61 -39 62 14 92 12 7 17 33 13 73 -2 32
-49 68 -89 69 -20 1 -63 2 -95 2 -32 1 -62 -2 -66 -8z m171 -67 c13 -22 9 -46
-9 -52 -10 -3 -36 -8 -58 -11 l-41 -5 0 46 -1 46 50 -6 c28 -3 54 -11 59 -18z"/>
<path d="M576 5463 c-3 -3 -95 -5 -205 -5 -111 0 -203 -3 -206 -7 -9 -16 33
-51 173 -146 57 -39 107 -77 112 -85 12 -25 9 -2245 -4 -2262 -6 -8 -42 -36
-81 -63 -93 -63 -178 -128 -187 -140 -23 -31 -8 -34 239 -33 136 0 257 4 269
8 12 5 59 65 108 139 48 72 97 137 109 146 19 13 134 15 928 15 499 0 915 -3
924 -6 9 -4 59 -71 112 -150 83 -125 122 -168 139 -152 2 3 3 623 2 1378 l-3
1373 -30 -26 c-17 -14 -70 -84 -118 -155 -48 -71 -93 -132 -100 -135 -24 -9
-1830 -6 -1847 3 -24 13 -92 106 -137 187 -20 37 -84 102 -101 103 -4 1 -26 5
-49 9 -23 5 -45 6 -47 4z m2329 -1375 l0 -447 -899 2 -899 2 0 430 c1 237 2
438 2 448 1 16 49 17 898 15 l898 -3 0 -447z"/>
</g>
</svg>
