<?xml version="1.0" encoding="utf-8"?>
<!-- Generator: Adobe Illustrator 19.0.0, SVG Export Plug-In . SVG Version: 6.00 Build 0)  -->
<svg version="1.1" id="Layer_1" xmlns="http://www.w3.org/2000/svg" xmlns:xlink="http://www.w3.org/1999/xlink" x="0px" y="0px"
	 viewBox="0 0 494.6 220.7" style="enable-background:new 0 0 494.6 220.7;" xml:space="preserve">
<style type="text/css">
	.st0{fill:#FFFFFF;}
</style>
<g id="XMLID_5_">
	<g id="XMLID_259_">
		<path id="XMLID_276_" class="st0" d="M109.8,175.3l15.8-64c4.3-17,8.6-33.8,12.7-50.8h-0.2l-34.8,52.3l-41.8,62.6h-3.6l-10.7-62.6
			l-8.9-52.3h-0.2c-4.1,17-8.4,33.8-12.7,50.8l-15.8,64H6.9L36.1,57.7h4.3L52,125.4l8.1,47.2h0.2l31.5-47.2l45.1-67.7h4.8
			l-29.2,117.5H109.8z"/>
		<path id="XMLID_273_" class="st0" d="M207.3,113.5c0,3.1-0.5,6.3-1.7,10.9l-8.3,32.8c-1.5,5.9-2.8,13.7-3,18h-2.6
			c0.3-4.8,2-12,3.8-19.5h-0.2c-6.8,12.9-18.2,21.1-34.3,21.1c-14.7,0-23.8-7.9-23.8-20.8c0-11.4,7.1-22.9,32.2-26.6
			c8.9-1.3,22.6-2.8,33.2-3.8l0.5-2c1-4,1.5-7.3,1.5-10.2c0-14.7-8.7-21.1-22.1-21.1c-16,0-26.6,10.2-29.7,24.3H150
			c3.6-16.2,15.8-26.9,32.5-26.9C197.4,89.8,207.3,97.4,207.3,113.5z M202,128.4c-9.7,0.8-24.1,2.5-32.4,3.8
			c-23.9,3.6-29.7,14-29.7,23.9c0,11.4,7.9,18.2,21.1,18.2c19,0,32.5-12.2,37.8-33.3L202,128.4z"/>
		<path id="XMLID_271_" class="st0" d="M224.4,156.5c-0.8,3.3-1.2,5.9-1.2,8.1c0,5.9,3,8.4,9.6,8.4c1.8,0,4.5-0.3,5.9-0.7l-0.7,2.8
			c-1.3,0.3-3.6,0.5-5.3,0.5c-8.1,0-12.2-3.6-12.2-11.1c0-2.5,0.3-5,1.3-8.7l15.5-61.7h-16.2l0.7-2.6h16.2l4.8-19.3h2.6l-4.8,19.3
			H258l-0.7,2.6H240L224.4,156.5z"/>
		<path id="XMLID_268_" class="st0" d="M256,132.5c-1,4.8-1.5,9.2-1.5,13.4c0,17.8,8.7,28.4,25.3,28.4c15.3,0,28.9-9.4,34.3-23.6
			h2.8c-5.9,16-20.6,26.2-37.1,26.2c-18,0-27.9-11.7-27.9-31c0-24.1,15.7-56.1,45.1-56.1c16.8,0,27.7,10.6,27.7,29.5
			c0,3.3-0.7,8.3-2.1,13.2H256z M256.6,129.9h63.7c1.2-3.5,1.7-7.3,1.7-10.6c0-17.5-9.7-26.9-25.1-26.9
			C277.6,92.4,262.4,107.9,256.6,129.9z"/>
		<path id="XMLID_266_" class="st0" d="M386.5,91.4l-0.7,2.6c-1.2-0.2-3-0.3-4.5-0.3c-16.2,0-30.7,10.6-36.3,33.2l-12,48.4h-2.6
			l21-83.8h2.6c-1.8,7.3-3.6,14.4-6.1,21.8h0.2c7.9-14.9,19.5-22.1,34-22.1C383.5,91.1,385.3,91.3,386.5,91.4z"/>
		<path id="XMLID_263_" class="st0" d="M378.6,175.3l20.8-83.8h2.6l-20.8,83.8H378.6z M404.7,70.5l3.1-12.7h2.6l-3.1,12.7H404.7z"/>
		<path id="XMLID_260_" class="st0" d="M473.8,113.5c0,3.1-0.5,6.3-1.7,10.9l-8.3,32.8c-1.5,5.9-2.8,13.7-3,18h-2.6
			c0.3-4.8,2-12,3.8-19.5h-0.2c-6.8,12.9-18.2,21.1-34.3,21.1c-14.7,0-23.8-7.9-23.8-20.8c0-11.4,7.1-22.9,32.2-26.6
			c8.9-1.3,22.6-2.8,33.2-3.8l0.5-2c1-4,1.5-7.3,1.5-10.2c0-14.7-8.7-21.1-22.1-21.1c-16,0-26.6,10.2-29.7,24.3h-2.8
			c3.6-16.2,15.8-26.9,32.5-26.9C463.9,89.8,473.8,97.4,473.8,113.5z M468.5,128.4c-9.7,0.8-24.1,2.5-32.3,3.8
			c-23.9,3.6-29.7,14-29.7,23.9c0,11.4,7.9,18.2,21.1,18.2c19,0,32.5-12.2,37.8-33.3L468.5,128.4z"/>
	</g>
</g>
<g id="XMLID_2_">
	<g id="XMLID_370_">
		<path id="XMLID_400_" class="st0" d="M63,19.9h-8.8c-0.4-3.8-2.8-6-6.5-6c-4.6,0-7.5,4.1-7.5,11s2.9,11,7.4,11
			c3.7,0,6.1-2.3,6.6-6.2h8.9c-0.7,8.7-6.6,13.6-15.6,13.6c-10.1,0-16.4-7-16.4-18.4c0-11.4,6.3-18.4,16.5-18.4
			C56.7,6.5,62.6,11.7,63,19.9z"/>
		<path id="XMLID_397_" class="st0" d="M92.7,29.9c0,8.2-5.2,13.3-13.4,13.3c-8.2,0-13.4-5.2-13.4-13.3S71,16.5,79.2,16.5
			C87.4,16.5,92.7,21.7,92.7,29.9z M74.4,29.9c0,4.4,1.8,7.1,4.8,7.1c3,0,4.8-2.7,4.8-7.1c0-4.4-1.8-7.1-4.8-7.1
			C76.2,22.8,74.4,25.5,74.4,29.9z"/>
		<path id="XMLID_395_" class="st0" d="M120.8,27v15.4h-8.2V27.9c0-3.3-1.3-4.8-3.7-4.8c-2.5,0-4.2,2-4.2,6.4v13h-8.2V17.3h7.7v3
			h0.1c1.6-2.2,4.1-3.7,7.3-3.7C117.3,16.7,120.8,20.2,120.8,27z"/>
		<path id="XMLID_393_" class="st0" d="M140.3,36.1v6.2c-1.1,0.3-2.9,0.5-4.2,0.5c-6.3,0-9-2.4-9-8.4V23.3h-3.9v-6h3.9v-6.8h8.2v6.8
			h4.7v6h-4.7v9.3c0,2.7,0.9,3.8,3.2,3.8C139.1,36.3,139.8,36.2,140.3,36.1z"/>
		<path id="XMLID_391_" class="st0" d="M161.4,17.2v7c-0.8-0.1-1.7-0.2-2.5-0.2c-4.2,0-6.4,2.6-6.4,7.4v11h-8.2V17.3h7.6v3.5h0.1
			c1.7-2.7,4-3.9,7.1-3.9C159.8,16.9,160.7,17,161.4,17.2z"/>
		<path id="XMLID_388_" class="st0" d="M186.5,26.7v8.6c0,3.3,0.2,5.3,0.7,7.1h-7.4c-0.2-1-0.3-2.1-0.3-3.3h-0.1
			c-1.9,2.6-4.7,3.9-8.2,3.9c-5.4,0-8.6-3.3-8.6-7.7c0-4.3,2.6-7,10-8.1c1.8-0.3,4.5-0.6,6-0.7v-0.9c0-2.8-1.4-4-3.5-4
			c-2.2,0-3.5,1.2-3.6,3.5h-7.9c0.2-4.7,3.7-8.7,11.5-8.7C182.8,16.5,186.5,20.1,186.5,26.7z M178.6,31.1c-1.2,0-3.2,0.2-4.4,0.5
			c-2.5,0.5-3.5,1.4-3.5,3.2c0,1.7,1.1,2.9,3.2,2.9c1.2,0,2.6-0.4,3.5-1.3c1-1.1,1.2-2.3,1.2-4.4V31.1z"/>
		<path id="XMLID_386_" class="st0" d="M191.5,42.4V7.2h8.2v35.2H191.5z"/>
		<path id="XMLID_384_" class="st0" d="M204.8,32.7V17.3h8.2v14.5c0,3.3,1.3,4.8,3.7,4.8c2.5,0,4.2-2,4.2-6.4v-13h8.2v25.1h-7.7v-3
			h-0.1c-1.6,2.2-4.1,3.7-7.3,3.7C208.3,43.1,204.8,39.6,204.8,32.7z"/>
		<path id="XMLID_382_" class="st0" d="M243.2,36L243.2,36l11.9,0.1v6.3h-21.9v-6.5l11.4-12.3v-0.1h-11v-6.3h21.1v6.5L243.2,36z"/>
		<path id="XMLID_379_" class="st0" d="M287.1,42.4v-3.1H287c-1.5,2.5-4.2,3.8-7,3.8c-6.5,0-10.7-5.2-10.7-13.2
			c0-8.1,4.1-13.2,10.5-13.2c2.7,0,5.3,1.2,6.9,3.4h0.1V7.2h8.2v35.2H287.1z M277.9,29.9c0,4.2,1.8,7,4.7,7c2.8,0,4.6-2.7,4.6-7
			c0-4.3-1.8-7-4.6-7C279.8,22.9,277.9,25.6,277.9,29.9z"/>
		<path id="XMLID_376_" class="st0" d="M316,34.7h8.3c-1,4.7-5.7,8.5-12.4,8.5c-8.4,0-13-5.7-13-13.5c0-7.4,4.7-13.1,12.9-13.1
			c5.9,0,10.2,3.1,12,8.1c0.7,1.9,1,3.9,1,7h-17.8c0.2,4.7,2.4,6.2,4.9,6.2C314.2,37.7,315.8,36.4,316,34.7z M307.1,26.9h9.4
			c-0.3-3.5-2.3-5-4.7-5C309.4,21.9,307.5,23.3,307.1,26.9z"/>
		<path id="XMLID_374_" class="st0" d="M340.6,42.4V7.2h8.2v35.2H340.6z"/>
		<path id="XMLID_371_" class="st0" d="M376.4,26.7v8.6c0,3.3,0.2,5.3,0.7,7.1h-7.4c-0.2-1-0.3-2.1-0.3-3.3h-0.1
			c-1.9,2.6-4.7,3.9-8.2,3.9c-5.4,0-8.6-3.3-8.6-7.7c0-4.3,2.6-7,10-8.1c1.8-0.3,4.5-0.6,6-0.7v-0.9c0-2.8-1.4-4-3.5-4
			c-2.2,0-3.5,1.2-3.6,3.5h-7.9c0.2-4.7,3.7-8.7,11.5-8.7C372.7,16.5,376.4,20.1,376.4,26.7z M368.5,31.1c-1.2,0-3.2,0.2-4.4,0.5
			c-2.5,0.5-3.5,1.4-3.5,3.2c0,1.7,1.1,2.9,3.2,2.9c1.2,0,2.6-0.4,3.5-1.3c1-1.1,1.2-2.3,1.2-4.4V31.1z"/>
	</g>
</g>
<g id="XMLID_40_">
</g>
<g id="XMLID_79_">
</g>
<g id="XMLID_83_">
</g>
<g id="XMLID_120_">
</g>
<g id="XMLID_121_">
</g>
<g id="XMLID_122_">
</g>
</svg>
