<?xml version="1.0" encoding="utf-8"?>
<!-- Generator: Adobe Illustrator 19.0.0, SVG Export Plug-In . SVG Version: 6.00 Build 0)  -->
<svg version="1.1" id="Layer_1" xmlns="http://www.w3.org/2000/svg" xmlns:xlink="http://www.w3.org/1999/xlink" x="0px" y="0px"
	 viewBox="0 0 800 800" style="enable-background:new 0 0 800 800;" xml:space="preserve">
<style type="text/css">
	.st0{fill:#FFFFFF;}
</style>
<path id="XMLID_124_" class="st0" d="M649.2,538.5c0,39.9,0,77.8,0,116.2c-101.8,0-203.5,0-307,0c1.8-2.6,2.7-4.9,4.3-6.1
	c11.1-8,22.5-15.6,33.7-23.6c1.6-1.2,3.4-3.5,3.4-5.3c0.2-32.5,0.1-65,0.1-97.5c0-0.5-0.1-1-0.3-2.1c-13.2,0-26.4,0-39.7,0
	c-0.4-0.4-0.7-0.9-1.1-1.3c1.2-1.8,1.9-4.1,3.5-5.3c10.9-7.8,21.8-15.4,33-22.8c3.4-2.3,4.8-4.7,4.7-8.9c-0.3-12.5-0.1-25-0.1-37.5
	c0-52,0-104,0-156c0-35.3,0.1-70.7,0.2-106c0-3.4-0.9-5.6-4-7.6c-11.4-7.5-22.6-15.4-33.8-23.4c-1.6-1.2-2.5-3.4-3.7-5.1
	c0.4-0.4,0.8-0.8,1.1-1.2c2,0,4,0,5.9,0c60,0,120-0.4,180,0.2c35.5,0.3,69.8,7.1,101.2,24.7c43,24.1,71.2,59.4,82.6,107.8
	c5.3,22.6,6,45.4,4.6,68.2c-2.1,34.5-11.2,67.2-30.9,96.2c-26.6,39.1-63.2,63.6-109.7,73c-17.1,3.5-34.4,4.7-51.8,4.8
	c-22.2,0.2-44.3,0-66.9,0c0,40.6,0,81,0,122.1c1.6,0,3.4,0,5.1,0c33.8,0,67.7,0,101.5,0c3.2,0,5.2-0.7,7.4-3.6
	c23.1-31.8,46.5-63.4,69.9-95C643.9,541.7,646.2,540.6,649.2,538.5z M417.1,280.1c3.5,0,5.3,0,7.1,0c23,0,46,0,69,0.1
	c1.7,0,3.4,1.2,5,1.8c-1,1.7-1.6,3.9-3.1,4.9c-10.9,7.8-21.8,15.5-32.9,22.9c-2.9,2-3.9,4.1-3.9,7.6c0.1,61.3,0.1,122.6,0.1,183.9
	c0,1.8,0,3.5,0,5.6c17.1,0,33.6,0.4,50-0.1c11.4-0.3,22.8-1,34-3c36-6.4,60.5-27.8,75.9-60.2c13.1-27.6,17.4-57.2,18.9-87.2
	c0.8-16.6-0.4-33.2-0.8-49.9c-0.5-17.9-3.5-35.4-8.1-52.6c-5.8-22-15-42.6-30.3-59.8c-21.6-24.3-49.6-34.8-81.3-36.1
	c-12.3-0.5-24.7-0.1-37-0.1c-7,0-13.9,0-21.4,0c0,2.3,0,4.1,0,5.9c0,26.7-0.1,53.3,0.1,80c0,3.4-1,5.3-3.8,7.2
	c-11.2,7.6-22.3,15.3-33.4,23.1C419.6,275.2,418.9,277.4,417.1,280.1z"/>
<path id="XMLID_121_" class="st0" d="M18.6,487.8c1.3-1.7,2.4-3.8,4-5.1c8.7-6.3,17.4-12.6,26.3-18.5c2.6-1.7,3.4-3.5,3.4-6.4
	c-0.1-83.7-0.1-167.3,0-251c0-2.8-0.8-4.4-3.3-6c-9.1-6-18-12.2-26.8-18.6c-1.6-1.2-2.6-3.3-3.8-5c0.4-0.4,0.7-0.8,1.1-1.2
	c14.6,0,29.4,1,43.9-0.3c12.3-1.1,19.8,2.9,25.1,13.7c3.1,6.3,7.9,11.7,11.7,17.7c1.8,2.7,3.8,4,7.3,4c68-0.1,136-0.1,204,0
	c3.2,0,5.1-1,6.8-3.6c6.2-9.5,12.5-19,19.1-28.2c1.2-1.8,3.7-2.7,6.6-4.7c0,105.7,0,209.7,0,313.9c-3,1.3-4.9,0.4-6.7-2.5
	c-6.2-9.5-12.7-18.9-18.9-28.4c-1.7-2.6-3.5-3.7-6.8-3.7c-68,0.1-136,0.1-204,0c-3.5,0-5.5,1.3-7.3,4c-6,9.1-12.2,18-18.1,27.1
	c-1.8,2.8-3.6,4.1-7.2,4c-18.5-0.2-37-0.1-55.4-0.1C19.2,488.6,18.9,488.2,18.6,487.8z M126.5,383.9c68.8,0,137.1,0,205.5,0
	c0-34.4,0-68.5,0-102.6c-68.7,0-137,0-205.5,0C126.5,315.5,126.5,349.5,126.5,383.9z"/>
<path id="XMLID_118_" class="st0" d="M753.4,215c-19.4,0-35.1-15.5-35-34.8c0.1-19.6,14.8-35.2,35.1-35c20.1,0.2,34.4,14.9,34.8,35
	C788.6,199.3,772.5,215,753.4,215z M753.3,208c16.5-1,27.7-11.6,27.7-27.7c0-16.8-10.9-28-27.7-28c-16.9,0-27.8,11.3-27.7,28
	C725.7,196.4,736.7,207,753.3,208z"/>
<path id="XMLID_110_" class="st0" d="M759.9,182.5c3.2,5.1,6.4,10.3,9.8,15.8c-8.9,1.5-8.8,1.5-12.5-5.3c-2.5-4.5-4.3-10.1-11.9-8.7
	c0,4.7,0,9.4,0,14.4c-2.7,0-5,0-7.7,0c0-11.9,0-24,0-36.6c7.3,0,14.8-0.6,22.1,0.3c2.7,0.3,6,3.8,7.1,6.6c1.4,3.6,1,8-2.8,10.8
	C762.7,180.8,761.2,181.7,759.9,182.5z M745.5,178.1c4-0.4,7.6-0.5,11.1-1.3c1.2-0.3,2.6-2.4,2.6-3.6c0-1.4-1.4-3.7-2.5-4
	c-3.5-0.9-7.3-1-11.1-1.4C745.5,171.4,745.5,174.2,745.5,178.1z"/>
</svg>
