<?xml version="1.0" encoding="utf-8"?>
<!-- Generator: Adobe Illustrator 19.0.0, SVG Export Plug-In . SVG Version: 6.00 Build 0)  -->
<svg version="1.1" id="Layer_1" xmlns="http://www.w3.org/2000/svg" xmlns:xlink="http://www.w3.org/1999/xlink" x="0px" y="0px"
	 viewBox="0 0 494.6 220.7" style="enable-background:new 0 0 494.6 220.7;" xml:space="preserve">
<style type="text/css">
	.st0{fill:#FFFFFF;}
</style>
<g id="XMLID_5_">
	<g id="XMLID_269_">
		<path id="XMLID_287_" class="st0" d="M93.4,83.7c0,3.5-0.5,7.3-1.5,11.6h-2.6c1-4.3,1.5-8.1,1.5-11.6c0-16.8-9.6-24.9-29.7-24.9
			c-24.8,0-36,17.3-36,30.4c0,13.7,9.1,19.3,26.4,24.9c18.8,6.1,29.5,11.6,29.5,28.6c0,16.3-13.2,34.3-41.3,34.3
			c-22,0-33.5-9.4-33.5-28.7c0-3.6,0.5-7.6,1.7-12.2h2.6c-1.2,4.6-1.7,8.6-1.7,12.2c0,17.8,10.4,26.1,30.9,26.1
			c27.4,0,38.6-17.5,38.6-31.7c0-16-10.6-20.5-28.4-26.2c-18.2-5.9-27.6-12.5-27.6-27.2c0-15,13.2-33,38.6-33
			C82.7,56.1,93.4,65.3,93.4,83.7z"/>
		<path id="XMLID_284_" class="st0" d="M94.5,175.3l20.8-83.8h2.6l-20.8,83.8H94.5z M120.6,70.5l3.1-12.7h2.6l-3.1,12.7H120.6z"/>
		<path id="XMLID_282_" class="st0" d="M121.7,175.3l29.2-117.5h2.6l-29.2,117.5H121.7z"/>
		<path id="XMLID_280_" class="st0" d="M153.5,153.8c0-4,0.7-8.3,2-13.4l12.2-49h2.6L158,141.1c-1.2,4.8-1.8,8.9-1.8,12.7
			c0,13.7,7.6,20.5,20.6,20.5c15.5,0,30.7-12.5,35.2-30.4l13-52.5h2.6l-21,83.8H204l4.5-17.7h-0.2c-7.4,12.4-19.6,19.3-31.7,19.3
			C162.3,176.9,153.5,169,153.5,153.8z"/>
		<path id="XMLID_277_" class="st0" d="M238.4,132.5c-1,4.8-1.5,9.2-1.5,13.4c0,17.8,8.7,28.4,25.3,28.4c15.4,0,28.9-9.4,34.3-23.6
			h2.8c-5.9,16-20.6,26.2-37.1,26.2c-18,0-27.9-11.7-27.9-31c0-24.1,15.7-56.1,45.1-56.1c16.8,0,27.7,10.6,27.7,29.5
			c0,3.3-0.7,8.3-2.1,13.2H238.4z M239.1,129.9h63.7c1.2-3.5,1.7-7.3,1.7-10.6c0-17.5-9.7-26.9-25.1-26.9
			C260,92.4,244.9,107.9,239.1,129.9z"/>
		<path id="XMLID_275_" class="st0" d="M321.8,156.5c-0.8,3.3-1.2,5.9-1.2,8.1c0,5.9,3,8.4,9.6,8.4c1.8,0,4.5-0.3,5.9-0.7l-0.7,2.8
			c-1.3,0.3-3.6,0.5-5.3,0.5c-8.1,0-12.2-3.6-12.2-11.1c0-2.5,0.3-5,1.3-8.7l15.5-61.7h-16.2l0.7-2.6h16.2l4.8-19.3h2.6l-4.8,19.3
			h17.3l-0.7,2.6h-17.3L321.8,156.5z"/>
		<path id="XMLID_272_" class="st0" d="M415.7,113.5c0,3.1-0.5,6.3-1.7,10.9l-8.3,32.8c-1.5,5.9-2.8,13.7-3,18h-2.6
			c0.3-4.8,2-12,3.8-19.5h-0.2c-6.8,12.9-18.2,21.1-34.3,21.1c-14.7,0-23.8-7.9-23.8-20.8c0-11.4,7.1-22.9,32.2-26.6
			c8.9-1.3,22.6-2.8,33.2-3.8l0.5-2c1-4,1.5-7.3,1.5-10.2c0-14.7-8.7-21.1-22.1-21.1c-16,0-26.6,10.2-29.7,24.3h-2.8
			c3.6-16.2,15.8-26.9,32.5-26.9C405.8,89.8,415.7,97.4,415.7,113.5z M410.4,128.4c-9.7,0.8-24.1,2.5-32.4,3.8
			c-23.9,3.6-29.7,14-29.7,23.9c0,11.4,7.9,18.2,21.1,18.2c19,0,32.5-12.2,37.8-33.3L410.4,128.4z"/>
		<path id="XMLID_270_" class="st0" d="M489.4,110.2c0,2.6-0.3,5.3-1.2,8.3h-2.6c0.8-3,1.2-5.6,1.2-8.3c0-11.2-7.8-17.8-22.9-17.8
			c-16.7,0-25.7,10.2-25.7,21.1c0,9.9,6.6,13.2,19.1,17c16.5,4.8,24.4,9.4,24.4,21.5c0,13.2-11.1,24.9-31,24.9
			c-17.8,0-27.1-7.9-27.1-21.6c0-2.8,0.3-5.6,1.2-8.7h2.6c-0.8,3.1-1.2,6.1-1.2,8.7c0,12.2,8.1,19,24.4,19
			c18.5,0,28.4-10.6,28.4-22.3c0-10.7-7.4-14.5-22.9-19.1c-13.2-3.8-20.6-8.1-20.6-19.3c0-12.4,10.1-23.8,28.4-23.8
			C480.3,89.8,489.4,97.5,489.4,110.2z"/>
	</g>
</g>
<g id="XMLID_2_">
	<g id="XMLID_388_">
		<path id="XMLID_420_" class="st0" d="M30.5,14.4v6.7h15.2v7.1H30.5v7.1h16.7v7.2H21.9V7.2h24.9v7.2H30.5z"/>
		<path id="XMLID_418_" class="st0" d="M51.9,42.4V7.2h8.2v35.2H51.9z"/>
		<path id="XMLID_416_" class="st0" d="M82.2,42.4l-8.1-25.1h8.7l2.5,9.2c0.9,3.5,1.7,7.1,2.3,10.6h0.1c0.6-3.6,1.5-7.1,2.4-10.6
			l2.4-9.2h8.7l-8.1,25.1H82.2z"/>
		<path id="XMLID_413_" class="st0" d="M125.1,26.7v8.6c0,3.3,0.2,5.3,0.7,7.1h-7.4c-0.2-1-0.3-2.1-0.3-3.3h-0.1
			c-1.9,2.6-4.7,3.9-8.2,3.9c-5.4,0-8.6-3.3-8.6-7.7c0-4.3,2.6-7,10-8.1c1.8-0.3,4.5-0.6,6-0.7v-0.9c0-2.8-1.4-4-3.5-4
			c-2.2,0-3.5,1.2-3.6,3.5h-7.9c0.2-4.7,3.7-8.7,11.5-8.7C121.3,16.5,125.1,20.1,125.1,26.7z M117.1,31.1c-1.2,0-3.2,0.2-4.4,0.5
			c-2.5,0.5-3.5,1.4-3.5,3.2c0,1.7,1.1,2.9,3.2,2.9c1.2,0,2.6-0.4,3.5-1.3c1-1.1,1.2-2.3,1.2-4.4V31.1z"/>
		<path id="XMLID_410_" class="st0" d="M130.1,13.7V7.2h8.2v6.5H130.1z M130.1,42.4V17.3h8.2v25.1H130.1z"/>
		<path id="XMLID_408_" class="st0" d="M148.7,42.4l-8.1-25.1h8.7l2.5,9.2c0.9,3.5,1.7,7.1,2.3,10.6h0.1c0.6-3.6,1.5-7.1,2.4-10.6
			l2.4-9.2h8.7l-8.1,25.1H148.7z"/>
		<path id="XMLID_404_" class="st0" d="M184.9,34.7h8.3c-1,4.7-5.7,8.5-12.5,8.5c-8.4,0-13-5.7-13-13.5c0-7.4,4.7-13.1,12.9-13.1
			c5.9,0,10.2,3.1,12,8.1c0.7,1.9,1,3.9,1,7h-17.8c0.2,4.7,2.4,6.2,4.9,6.2C183.1,37.7,184.7,36.4,184.9,34.7z M176,14.6l3.9-7.3
			h9.4l-7,7.3H176z M176,26.9h9.4c-0.3-3.5-2.3-5-4.7-5C178.3,21.9,176.5,23.3,176,26.9z"/>
		<path id="XMLID_402_" class="st0" d="M221.8,27v15.4h-8.2V27.9c0-3.3-1.3-4.8-3.7-4.8c-2.5,0-4.2,2-4.2,6.4v13h-8.2V17.3h7.7v3
			h0.1c1.6-2.2,4.1-3.7,7.3-3.7C218.2,16.7,221.8,20.2,221.8,27z"/>
		<path id="XMLID_399_" class="st0" d="M255.2,42.4v-3.1h-0.1c-1.5,2.5-4.2,3.8-7,3.8c-6.5,0-10.7-5.2-10.7-13.2
			c0-8.1,4.1-13.2,10.5-13.2c2.7,0,5.3,1.2,6.9,3.4h0.1V7.2h8.2v35.2H255.2z M246,29.9c0,4.2,1.8,7,4.7,7c2.8,0,4.6-2.7,4.6-7
			c0-4.3-1.8-7-4.6-7C247.8,22.9,246,25.6,246,29.9z"/>
		<path id="XMLID_396_" class="st0" d="M284.1,34.7h8.3c-1,4.7-5.7,8.5-12.4,8.5c-8.4,0-13-5.7-13-13.5c0-7.4,4.7-13.1,12.9-13.1
			c5.9,0,10.2,3.1,12,8.1c0.7,1.9,1,3.9,1,7H275c0.2,4.7,2.4,6.2,4.9,6.2C282.3,37.7,283.8,36.4,284.1,34.7z M275.1,26.9h9.4
			c-0.3-3.5-2.3-5-4.7-5C277.5,21.9,275.6,23.3,275.1,26.9z"/>
		<path id="XMLID_394_" class="st0" d="M308.7,42.4V7.2h8.2v35.2H308.7z"/>
		<path id="XMLID_391_" class="st0" d="M344.5,26.7v8.6c0,3.3,0.2,5.3,0.7,7.1h-7.4c-0.2-1-0.3-2.1-0.3-3.3h-0.1
			c-1.9,2.6-4.7,3.9-8.2,3.9c-5.4,0-8.6-3.3-8.6-7.7c0-4.3,2.6-7,10-8.1c1.8-0.3,4.5-0.6,6-0.7v-0.9c0-2.8-1.4-4-3.5-4
			c-2.2,0-3.5,1.2-3.6,3.5h-7.9c0.2-4.7,3.7-8.7,11.5-8.7C340.8,16.5,344.5,20.1,344.5,26.7z M336.6,31.1c-1.2,0-3.2,0.2-4.4,0.5
			c-2.5,0.5-3.5,1.4-3.5,3.2c0,1.7,1.1,2.9,3.2,2.9c1.2,0,2.6-0.4,3.5-1.3c1-1.1,1.2-2.3,1.2-4.4V31.1z"/>
		<path id="XMLID_389_" class="st0" d="M371,24.9h-7.8c0-2.3-1.3-3.2-3.4-3.2c-1.9,0-2.9,0.7-2.9,2c0,1.5,1.3,2,5.1,3
			c4.7,1.2,9.8,2.6,9.8,8.5c0,4.8-4.3,8.1-11.7,8.1c-7.7,0-12-2.9-12-8.9h8.3c0,2.3,1.2,3.6,3.9,3.6c2.1,0,3.2-0.8,3.2-2.1
			c0-1.8-1.6-2.3-5.8-3.4c-4.3-1.1-8.9-2.2-8.9-8c0-4.5,3.9-7.9,11.1-7.9C366.8,16.5,371,19.3,371,24.9z"/>
	</g>
</g>
<g id="XMLID_40_">
</g>
<g id="XMLID_79_">
</g>
<g id="XMLID_83_">
</g>
<g id="XMLID_123_">
</g>
<g id="XMLID_124_">
</g>
<g id="XMLID_125_">
</g>
</svg>
